<svg width="91" height="57" viewBox="0 0 91 57" fill="none" xmlns="http://www.w3.org/2000/svg">
<path d="M49.8143 15.5102C49.8143 16.307 49.1659 16.9555 48.369 16.9555H46.2245C45.4237 16.9555 44.7792 16.307 44.7792 15.5102C44.7792 14.7094 45.4277 14.061 46.2245 14.061H48.369C49.1659 14.061 49.8143 14.7094 49.8143 15.5102ZM80.7243 37.0302V46.3974C80.7009 50.3427 78.5485 53.9677 75.1149 55.874C74.8962 55.995 74.654 56.0536 74.4157 56.0536C74.1735 56.0536 73.9313 55.9951 73.7165 55.874C70.2712 53.9638 68.1267 50.3349 68.1267 46.3974V37.0302C68.1267 36.2294 68.7751 35.5849 69.572 35.5849C70.3728 35.5849 71.0173 36.2333 71.0173 37.0302C71.0173 37.9364 71.0173 38.2411 74.2868 38.2411H74.5407C77.8219 38.2411 77.8259 37.9325 77.8337 37.0184C77.8415 36.2215 78.486 35.5809 79.279 35.5809H79.2868C80.0798 35.5848 80.7243 36.2333 80.7243 37.0302ZM77.8298 40.8544C76.7478 41.1317 75.5368 41.1317 74.5368 41.1317H74.2829C73.2868 41.1317 72.0876 41.1317 71.0134 40.8583V46.3935C71.0134 48.999 72.2946 51.4247 74.4118 52.9013C76.5212 51.4247 77.8141 48.999 77.8298 46.3857L77.8298 40.8544ZM22.4628 35.9794V45.3466C22.4394 49.2919 20.287 52.9169 16.8534 54.8232C16.6347 54.9442 16.3925 55.0028 16.1542 55.0028C15.912 55.0028 15.6698 54.9443 15.455 54.8232C12.0097 52.913 9.86519 49.2841 9.86519 45.3466V35.9794C9.86519 35.1786 10.5136 34.5341 11.3105 34.5341C12.1113 34.5341 12.7558 35.1825 12.7558 35.9794C12.7558 36.87 12.7558 37.1708 15.9042 37.1708H16.3964C19.5566 37.1708 19.5605 36.8661 19.5683 35.9677C19.5761 35.1708 20.2206 34.5341 21.0136 34.5341H21.0214C21.8183 34.538 22.4628 35.1825 22.4628 35.9794ZM19.5722 39.7997C18.5253 40.0614 17.3652 40.0614 16.4003 40.0614H15.9042C14.9472 40.0614 13.7948 40.0614 12.7558 39.8036V45.3427C12.7558 47.9482 14.037 50.3739 16.1542 51.8505C18.2636 50.3739 19.5565 47.9482 19.5722 45.3349L19.5722 39.7997ZM89.8222 17.9557L88.83 25.1823C88.7324 25.8971 88.1191 26.4323 87.3964 26.4323H80.7206V29.487C80.7206 30.2877 80.0722 30.9323 79.2753 30.9323H69.5644C68.7637 30.9323 68.1191 30.2838 68.1191 29.487V26.4323H22.4631V29.487C22.4631 30.2877 21.8147 30.9323 21.0178 30.9323H11.3069C10.5062 30.9323 9.86164 30.2838 9.86164 29.487V26.4323H3.09994C2.68978 26.4323 2.29916 26.2604 2.02574 25.9557C0.0960397 23.8229 -0.45866 20.9948 0.37734 17.5573C0.1625 13.2878 0.443746 10.5573 1.25234 8.9635C1.45546 8.56116 1.83828 8.276 2.27964 8.19397C8.45154 7.05727 13.2566 5.46347 17.9006 3.91667C22.0764 2.52997 26.0061 1.22527 30.3386 0.526067C30.4949 0.475286 30.6511 0.451847 30.8113 0.455754C36.3855 -0.380186 42.6513 -0.196585 50.9673 2.11195C51.0923 2.14711 51.2095 2.19789 51.3228 2.26429C57.0845 5.70569 60.5025 7.7526 61.5688 8.3932C72.7288 8.06898 82.0808 10.4088 89.3738 15.3424C89.8308 15.651 90.073 16.194 89.9949 16.7369L89.9675 16.94C89.991 17.0455 90.0105 17.1549 90.0105 17.2681C90.0066 17.5181 89.9355 17.7486 89.8222 17.9557ZM31.1152 3.32666C28.2129 4.58446 25.8222 5.97896 23.9824 7.49466C31.6699 8.71736 42.5094 9.08846 56.2874 8.60016C54.6663 7.63141 52.5726 6.37746 50.0022 4.84626C42.178 2.69786 36.3732 2.51806 31.1152 3.32666ZM19.5722 24.6197C19.5722 22.7486 18.037 21.2213 16.1542 21.2213C14.2831 21.2213 12.7558 22.7447 12.7558 24.6197V28.0377H19.5722V24.6197ZM77.8302 24.6197C77.8302 22.7486 76.299 21.2213 74.4122 21.2213C72.5411 21.2213 71.0138 22.7447 71.0138 24.6197V28.0377H77.8302V24.6197ZM86.1388 23.5377L86.799 18.7174H81.1857C80.3888 18.7174 79.7404 18.0689 79.7404 17.2721C79.7404 16.4713 80.3888 15.8268 81.1857 15.8268H84.5255C78.17 12.5104 70.3615 10.987 61.2405 11.3034C55.4788 11.5729 50.1705 11.7096 45.3265 11.7096C36.1195 11.7096 28.5965 11.2174 22.8305 10.2408C23.35 11.4713 24.2875 12.3814 25.393 13.4361C26.6664 14.6549 28.1118 16.0338 28.9477 18.1275C29.2446 18.8697 28.8813 19.7134 28.1391 20.0064C27.9633 20.0767 27.7836 20.108 27.6039 20.108C27.0297 20.108 26.4867 19.7642 26.2601 19.1978C25.6586 17.69 24.5609 16.6392 23.3968 15.5259C21.6663 13.8697 19.7054 11.9986 19.5179 8.51811C19.5179 8.51029 19.5179 8.50639 19.514 8.49857V8.48686C19.5062 8.37358 19.5179 8.2642 19.5375 8.15873C19.5414 8.13138 19.5531 8.10404 19.557 8.0767C19.5765 7.99076 19.6039 7.90873 19.639 7.83061C19.6508 7.79936 19.6664 7.77201 19.682 7.74076C19.7289 7.65482 19.7797 7.57279 19.8422 7.49857C19.85 7.49076 19.8539 7.47514 19.8656 7.46732C19.8695 7.46342 19.8734 7.45951 19.8773 7.4517L19.8929 7.43607C20.3969 6.85795 20.9671 6.29937 21.5882 5.75247C20.6781 6.04544 19.7601 6.35013 18.8187 6.66263C14.4906 8.10013 9.60784 9.72513 3.60774 10.8892C3.3343 11.858 3.0804 13.7915 3.28352 17.6197C3.29134 17.7682 3.27571 17.9127 3.24055 18.0572C2.6468 20.358 2.8265 22.1549 3.79525 23.5338H9.96714C10.4828 20.5807 13.0609 18.3268 16.1585 18.3268C19.2679 18.3268 21.8538 20.5807 22.3694 23.5338H68.2244C68.7401 20.5807 71.3182 18.3268 74.4158 18.3268C77.5252 18.3268 80.1111 20.5807 80.6267 23.5338L86.1388 23.5377Z" fill="black"/>
</svg>
