<svg width="91" height="64" viewBox="0 0 91 64" fill="none" xmlns="http://www.w3.org/2000/svg">
<path fill-rule="evenodd" clip-rule="evenodd" d="M88.9533 0C88.9533 0 16.5273 0.0195337 12.0703 0.0273457C9.15233 0.0273457 6.55863 1.89064 5.63283 4.66014C4.51173 7.60934 2.99613 11.7031 2.18753 14.3398C1.78128 15.6757 1.56253 16.707 1.56253 17.1679C1.56253 17.9101 1.87894 18.707 2.53128 19.4921C3.15237 20.2382 4.12898 21.0351 5.18748 21.8866C6.28518 22.7734 7.48828 23.7304 8.28128 24.8397C8.86331 25.6522 9.20706 26.5506 8.8594 27.5975C7.3906 32.0037 4.543 37.6205 2.5 42.5315C1.0352 46.0588 0 49.262 0 51.5003V57.9691C0 59.5668 0.63672 61.0941 1.7617 62.223C2.8906 63.348 4.4179 63.9847 6.0156 63.9847H20.6526C23.469 63.9847 25.7503 61.6995 25.7503 58.8831V53.2425L29.3245 38.2345H42.9885C49.2854 38.2345 54.5115 33.3556 54.9415 27.0705L55.297 21.8478H81.91C84.5077 21.8478 86.6131 19.7423 86.6131 17.1447V15.6056H88.9529C89.8122 15.6056 90.5115 14.9064 90.5115 14.047V1.56305C90.5115 0.699766 89.8127 0 88.9533 0ZM32.7733 3.1289C23.9295 3.13671 16.3123 3.14062 12.0743 3.14843C10.4884 3.14843 9.08603 4.16013 8.58603 5.66403C8.57822 5.68747 8.57041 5.707 8.56259 5.73044C7.80478 7.72654 6.86339 10.2577 6.08989 12.4843H70.2269C71.0863 12.4843 71.7855 13.1836 71.7855 14.0468C71.7855 14.9062 71.0863 15.6054 70.2269 15.6054H5.06689C4.85205 16.3047 4.6997 16.8398 4.68408 17.1249C4.71143 17.1718 4.80517 17.3398 4.8833 17.4374C5.06299 17.664 5.28955 17.8906 5.54736 18.1249C6.35205 18.8593 7.40676 19.6366 8.40286 20.496C10.9185 22.6562 12.9068 25.328 11.8209 28.5819C10.3287 33.0546 7.44976 38.7499 5.38336 43.7299C4.10996 46.7963 3.12166 49.5541 3.12166 51.4994V57.9682C3.12166 58.7339 3.42635 59.4721 3.96932 60.0151C4.51229 60.5581 5.25052 60.8628 6.01622 60.8628H20.6532C21.743 60.8628 22.6298 59.9761 22.6298 58.8823V53.0581C22.6298 52.937 22.6454 52.8159 22.6728 52.6948L26.5751 36.3118C26.7392 35.6087 27.3681 35.1126 28.0907 35.1126H42.9887C47.6449 35.1126 51.5082 31.5032 51.8246 26.8548C52.0668 23.3236 52.2816 20.179 52.2816 20.179C52.3402 19.3626 53.0199 18.7259 53.8402 18.7259H81.9102C82.7813 18.7259 83.4922 18.0189 83.4922 17.1439V15.6048H75.6875C74.8281 15.6048 74.1289 14.9056 74.1289 14.0462C74.1289 13.1829 74.8281 12.4837 75.6875 12.4837H87.3905V3.12042H79.5897V3.33136C79.5897 5.80016 77.5858 7.80406 75.117 7.80406H37.242C34.7732 7.80406 32.7732 5.80016 32.7732 3.33136L32.7733 3.1289ZM12.1873 47.5979C9.60143 47.5979 7.50373 49.6956 7.50373 52.2776C7.50373 54.8635 9.60143 56.9612 12.1873 56.9612C14.7693 56.9612 16.867 54.8635 16.867 52.2776C16.867 49.6956 14.7693 47.5979 12.1873 47.5979ZM12.1873 50.719C13.0467 50.719 13.7459 51.4182 13.7459 52.2776C13.7459 53.1409 13.0467 53.8401 12.1873 53.8401C11.3241 53.8401 10.6248 53.1409 10.6248 52.2776C10.6248 51.4182 11.3241 50.719 12.1873 50.719ZM18.5193 28.117C15.9334 28.117 13.8357 30.2147 13.8357 32.8006C13.8357 35.3826 15.9334 37.4803 18.5193 37.4803C21.1013 37.4803 23.199 35.3826 23.199 32.8006C23.199 30.2147 21.1013 28.117 18.5193 28.117ZM18.5193 31.2381C19.3787 31.2381 20.0779 31.9373 20.0779 32.8006C20.0779 33.66 19.3787 34.3592 18.5193 34.3592C17.656 34.3592 16.9568 33.66 16.9568 32.8006C16.9568 31.9373 17.656 31.2381 18.5193 31.2381ZM50.9883 20.4261C51.0274 19.9886 50.8829 19.5589 50.586 19.2347C50.2891 18.9105 49.8751 18.7269 49.4337 18.7269H34.0817C32.1364 18.7269 30.4411 20.0628 29.9919 21.9574C29.1481 25.4926 27.4997 32.4104 27.4997 32.4104C27.3903 32.8752 27.4997 33.3635 27.7966 33.7385C28.0895 34.1135 28.5426 34.3322 29.0193 34.3322H41.8713C46.3361 34.3322 50.0627 30.922 50.4533 26.4767C50.7228 23.4181 50.9883 20.4261 50.9883 20.4261ZM34.9573 21.848H34.0823C33.5784 21.848 33.1448 22.1917 33.0276 22.68L30.9964 31.2112H41.8714C44.7191 31.2112 47.0941 29.0393 47.3441 26.2034L47.7309 21.8479H38.0825C37.8598 25.5823 39.1996 26.9143 40.3246 27.3206C41.1332 27.6175 41.5512 28.512 41.2582 29.3206C40.9653 30.1331 40.0707 30.5511 39.2621 30.2581C37.5004 29.6214 34.6487 27.7777 34.9573 21.848ZM13.7423 10.688L15.2071 6.7466C15.5079 5.93801 15.0938 5.0396 14.2892 4.7388C13.4806 4.44192 12.5822 4.85208 12.2814 5.66068L10.8166 9.60208C10.5158 10.4068 10.9298 11.3052 11.7345 11.606C12.5431 11.9068 13.4415 11.4966 13.7423 10.688ZM27.1833 10.688L28.6481 6.7466C28.9489 5.93801 28.5387 5.0396 27.7302 4.7388C26.9216 4.44192 26.0232 4.85208 25.7224 5.66068L24.2576 9.60208C23.9568 10.4068 24.3708 11.3052 25.1794 11.606C25.9841 11.9068 26.8825 11.4966 27.1833 10.688ZM20.4645 10.688L21.9293 6.7466C22.2262 5.93801 21.8161 5.0396 21.0075 4.7388C20.2028 4.44192 19.3004 4.85208 19.0035 5.66068L17.5387 9.60208C17.238 10.4068 17.6481 11.3052 18.4567 11.606C19.2614 11.9068 20.1637 11.4966 20.4645 10.688ZM76.4685 3.1216C65.6675 3.1216 49.6595 3.12551 35.8945 3.12941V3.33253C35.8945 4.07862 36.5 4.68413 37.2422 4.68413H75.1172C75.8633 4.68413 76.4688 4.07866 76.4688 3.33253L76.4685 3.1216Z" fill="black"/>
</svg>
