<svg width="92" height="92" viewBox="0 0 92 92" fill="none" xmlns="http://www.w3.org/2000/svg">
<path fill-rule="evenodd" clip-rule="evenodd" d="M47.5194 1.2734L59.0194 32.3554L90.1014 43.8554C90.867 44.1406 91.3748 44.871 91.3748 45.6874C91.3748 46.5038 90.867 47.2343 90.1014 47.5194L59.0194 59.0194L47.5194 90.1014C47.2342 90.867 46.5038 91.3748 45.6874 91.3748C44.871 91.3748 44.1405 90.867 43.8554 90.1014L32.3554 59.0194L1.2734 47.5194C0.50778 47.2342 0 46.5038 0 45.6874C0 44.871 0.50781 44.1405 1.2734 43.8554L32.3554 32.3554L43.8554 1.2734C44.1406 0.50778 44.871 0 45.6874 0C46.5038 0 47.2343 0.50781 47.5194 1.2734ZM45.6874 7.5781L35.7069 34.5551C35.5077 35.0903 35.0897 35.5121 34.5546 35.7074L7.5776 45.6879L34.5546 55.6684C35.0898 55.8676 35.5116 56.2895 35.7069 56.8207L45.6874 83.7977L55.6679 56.8207C55.8671 56.2855 56.289 55.8637 56.8202 55.6684L83.7972 45.6879L56.8202 35.7074C56.285 35.5082 55.8632 35.0902 55.6679 34.5551L45.6874 7.5781ZM45.6874 36.7811C50.6015 36.7811 54.5936 40.7733 54.5936 45.6873C54.5936 50.6013 50.6014 54.5935 45.6874 54.5935C40.7734 54.5935 36.7812 50.6013 36.7812 45.6873C36.7812 40.7733 40.7734 36.7811 45.6874 36.7811ZM45.6874 40.6873C42.9257 40.6873 40.6874 42.9295 40.6874 45.6873C40.6874 48.449 42.9296 50.6873 45.6874 50.6873C48.4491 50.6873 50.6874 48.4451 50.6874 45.6873C50.6874 42.9256 48.4452 40.6873 45.6874 40.6873Z" fill="black"/>
</svg>
