<svg width="64" height="54" viewBox="0 0 64 54" fill="none" xmlns="http://www.w3.org/2000/svg">
<path d="M50 15C49.447 15 49 15.447 49 16C49 16.553 49.447 17 50 17H56C56.553 17 57 16.553 57 16C57 15.447 56.553 15 56 15H50Z" fill="black"/>
<path d="M63 1C62.447 1 62 1.447 62 2V5H20.677L18.929 0.629C18.777 0.249 18.409 0 18 0H14C13.447 0 13 0.447 13 1V5C12.447 5 12 5.447 12 6V8H8C7.447 8 7 8.447 7 9V10H1C0.447 10 0 10.447 0 11V15C0 15.553 0.447 16 1 16H7V17C7 17.553 7.447 18 8 18H12V20C12 20.553 12.447 21 13 21H24V24C24 26.757 26.243 29 29 29H33V53C33 53.553 33.447 54 34 54H41C41.553 54 42 53.553 42 53V39H47C47.553 39 48 38.553 48 38C48 33.86 47.698 32.659 46.97 29.758C46.097 26.264 47.818 23.578 47.832 23.555C47.941 23.391 48 23.198 48 23V21H63C63.553 21 64 20.553 64 20V2C64 1.447 63.553 1 63 1ZM2 14V12H7V14H2ZM14 7H30V11H14V7ZM32 7H40V11H32V7ZM42 7H48.132L45.465 11H42V7ZM15 2H17.323L18.523 5H15V2ZM9 10H12V16H9V10ZM29 27C27.346 27 26 25.654 26 24V21H32.517C31.352 22.935 29.116 22.998 28.995 23C28.445 23.003 28 23.449 28 24C28 24.551 28.447 25 29 25C30.008 25 31.654 24.626 33 23.485V27H29ZM35 37V21H41V37H35ZM40 52H35V39H40V52ZM46 22.724C45.495 23.617 44.104 26.536 45.03 30.244C45.689 32.87 45.951 33.914 45.994 37.001H43V21.001H46V22.724ZM62 19H14V13H46C46.334 13 46.646 12.833 46.832 12.555L50.535 7H62V19Z" fill="black"/>
<path d="M17 17C17.5523 17 18 16.5523 18 16C18 15.4477 17.5523 15 17 15C16.4477 15 16 15.4477 16 16C16 16.5523 16.4477 17 17 17Z" fill="black"/>
<path d="M21 17C21.5523 17 22 16.5523 22 16C22 15.4477 21.5523 15 21 15C20.4477 15 20 15.4477 20 16C20 16.5523 20.4477 17 21 17Z" fill="black"/>
</svg>
